<mxfile host="app.diagrams.net" modified="2024-06-18T03:34:57.924Z" agent="Mozilla/5.0 (Windows NT 10.0; Win64; x64) AppleWebKit/537.36 (KHTML, like Gecko) Chrome/125.0.0.0 Safari/537.36" etag="SJWpcO_OKS_-QGHbsL0r" version="24.5.5" type="device">
  <diagram id="C5RBs43oDa-KdzZeNtuy" name="Page-1">
    <mxGraphModel dx="2670" dy="746" grid="1" gridSize="10" guides="1" tooltips="1" connect="1" arrows="1" fold="1" page="1" pageScale="1" pageWidth="827" pageHeight="1169" math="0" shadow="0">
      <root>
        <mxCell id="WIyWlLk6GJQsqaUBKTNV-0" />
        <mxCell id="WIyWlLk6GJQsqaUBKTNV-1" parent="WIyWlLk6GJQsqaUBKTNV-0" />
        <mxCell id="1zMVWTirToFaFZ9l6glJ-29" style="edgeStyle=orthogonalEdgeStyle;rounded=0;orthogonalLoop=1;jettySize=auto;html=1;entryX=0;entryY=0.5;entryDx=0;entryDy=0;exitX=1;exitY=0.5;exitDx=0;exitDy=0;exitPerimeter=0;" edge="1" parent="WIyWlLk6GJQsqaUBKTNV-1" source="1zMVWTirToFaFZ9l6glJ-28" target="1zMVWTirToFaFZ9l6glJ-4">
          <mxGeometry relative="1" as="geometry">
            <Array as="points">
              <mxPoint x="-270" y="340" />
            </Array>
          </mxGeometry>
        </mxCell>
        <mxCell id="1zMVWTirToFaFZ9l6glJ-60" style="edgeStyle=orthogonalEdgeStyle;rounded=0;orthogonalLoop=1;jettySize=auto;html=1;entryX=0;entryY=0.5;entryDx=0;entryDy=0;" edge="1" parent="WIyWlLk6GJQsqaUBKTNV-1" source="1zMVWTirToFaFZ9l6glJ-28" target="1zMVWTirToFaFZ9l6glJ-27">
          <mxGeometry relative="1" as="geometry">
            <Array as="points">
              <mxPoint x="-410" y="820" />
            </Array>
          </mxGeometry>
        </mxCell>
        <mxCell id="1zMVWTirToFaFZ9l6glJ-28" value="" style="shape=card;whiteSpace=wrap;html=1;" vertex="1" parent="WIyWlLk6GJQsqaUBKTNV-1">
          <mxGeometry x="-550" y="180" width="280" height="305" as="geometry" />
        </mxCell>
        <mxCell id="1zMVWTirToFaFZ9l6glJ-30" style="edgeStyle=orthogonalEdgeStyle;rounded=0;orthogonalLoop=1;jettySize=auto;html=1;" edge="1" parent="WIyWlLk6GJQsqaUBKTNV-1" source="1zMVWTirToFaFZ9l6glJ-27">
          <mxGeometry relative="1" as="geometry">
            <mxPoint x="-410" y="490" as="targetPoint" />
          </mxGeometry>
        </mxCell>
        <mxCell id="1zMVWTirToFaFZ9l6glJ-27" value="" style="shape=parallelogram;perimeter=parallelogramPerimeter;whiteSpace=wrap;html=1;fixedSize=1;" vertex="1" parent="WIyWlLk6GJQsqaUBKTNV-1">
          <mxGeometry x="-300" y="730" width="900" height="180" as="geometry" />
        </mxCell>
        <mxCell id="tmFHrkGC2-1Cj11Atq-L-4" style="edgeStyle=orthogonalEdgeStyle;rounded=0;orthogonalLoop=1;jettySize=auto;html=1;entryX=1;entryY=0.5;entryDx=0;entryDy=0;" parent="WIyWlLk6GJQsqaUBKTNV-1" source="tmFHrkGC2-1Cj11Atq-L-1" target="tmFHrkGC2-1Cj11Atq-L-2" edge="1">
          <mxGeometry relative="1" as="geometry" />
        </mxCell>
        <mxCell id="tmFHrkGC2-1Cj11Atq-L-1" value="&lt;font style=&quot;font-size: 18px;&quot;&gt;DataBase&lt;/font&gt;" style="shape=cylinder3;whiteSpace=wrap;html=1;boundedLbl=1;backgroundOutline=1;size=15;" parent="WIyWlLk6GJQsqaUBKTNV-1" vertex="1">
          <mxGeometry x="390" y="220" width="90" height="120" as="geometry" />
        </mxCell>
        <mxCell id="tmFHrkGC2-1Cj11Atq-L-3" style="rounded=0;orthogonalLoop=1;jettySize=auto;html=1;exitX=0.856;exitY=0;exitDx=0;exitDy=0;exitPerimeter=0;" parent="WIyWlLk6GJQsqaUBKTNV-1" source="1zMVWTirToFaFZ9l6glJ-27" edge="1">
          <mxGeometry relative="1" as="geometry">
            <mxPoint x="470.0000000000001" y="724.0800000000002" as="sourcePoint" />
            <mxPoint x="470" y="340" as="targetPoint" />
          </mxGeometry>
        </mxCell>
        <mxCell id="tmFHrkGC2-1Cj11Atq-L-2" value="&lt;font style=&quot;font-size: 36px;&quot;&gt;&lt;b&gt;Server&lt;/b&gt;&lt;/font&gt;" style="rounded=1;whiteSpace=wrap;html=1;" parent="WIyWlLk6GJQsqaUBKTNV-1" vertex="1">
          <mxGeometry x="40" y="215" width="230" height="130" as="geometry" />
        </mxCell>
        <mxCell id="tmFHrkGC2-1Cj11Atq-L-6" value="user1&lt;div&gt;Thread&lt;/div&gt;" style="ellipse;shape=cloud;whiteSpace=wrap;html=1;" parent="WIyWlLk6GJQsqaUBKTNV-1" vertex="1">
          <mxGeometry x="-270" y="810" width="120" height="80" as="geometry" />
        </mxCell>
        <mxCell id="tmFHrkGC2-1Cj11Atq-L-7" value="user2&lt;br&gt;Thread" style="ellipse;shape=cloud;whiteSpace=wrap;html=1;" parent="WIyWlLk6GJQsqaUBKTNV-1" vertex="1">
          <mxGeometry x="-80" y="810" width="120" height="80" as="geometry" />
        </mxCell>
        <mxCell id="tmFHrkGC2-1Cj11Atq-L-8" value="user3&lt;br&gt;Thread" style="ellipse;shape=cloud;whiteSpace=wrap;html=1;" parent="WIyWlLk6GJQsqaUBKTNV-1" vertex="1">
          <mxGeometry x="250" y="810" width="120" height="80" as="geometry" />
        </mxCell>
        <mxCell id="tmFHrkGC2-1Cj11Atq-L-9" value="user4&lt;br&gt;thread" style="ellipse;shape=cloud;whiteSpace=wrap;html=1;" parent="WIyWlLk6GJQsqaUBKTNV-1" vertex="1">
          <mxGeometry x="444" y="810" width="120" height="80" as="geometry" />
        </mxCell>
        <mxCell id="1zMVWTirToFaFZ9l6glJ-10" style="edgeStyle=orthogonalEdgeStyle;rounded=0;orthogonalLoop=1;jettySize=auto;html=1;exitX=1;exitY=0.5;exitDx=0;exitDy=0;entryX=0.625;entryY=0.2;entryDx=0;entryDy=0;entryPerimeter=0;" edge="1" parent="WIyWlLk6GJQsqaUBKTNV-1" source="tmFHrkGC2-1Cj11Atq-L-10" target="tmFHrkGC2-1Cj11Atq-L-9">
          <mxGeometry relative="1" as="geometry">
            <mxPoint x="243" y="590" as="sourcePoint" />
          </mxGeometry>
        </mxCell>
        <mxCell id="tmFHrkGC2-1Cj11Atq-L-10" value="&lt;font style=&quot;font-size: 14px;&quot;&gt;RequestController&lt;/font&gt;" style="rhombus;whiteSpace=wrap;html=1;" parent="WIyWlLk6GJQsqaUBKTNV-1" vertex="1">
          <mxGeometry x="81" y="520" width="148" height="140" as="geometry" />
        </mxCell>
        <mxCell id="1zMVWTirToFaFZ9l6glJ-0" value="user1" style="ellipse;whiteSpace=wrap;html=1;" vertex="1" parent="WIyWlLk6GJQsqaUBKTNV-1">
          <mxGeometry x="-470" y="365" width="120" height="90" as="geometry" />
        </mxCell>
        <mxCell id="1zMVWTirToFaFZ9l6glJ-1" value="user2" style="ellipse;whiteSpace=wrap;html=1;" vertex="1" parent="WIyWlLk6GJQsqaUBKTNV-1">
          <mxGeometry x="-470" y="325" width="120" height="80" as="geometry" />
        </mxCell>
        <mxCell id="1zMVWTirToFaFZ9l6glJ-2" value="user3" style="ellipse;whiteSpace=wrap;html=1;" vertex="1" parent="WIyWlLk6GJQsqaUBKTNV-1">
          <mxGeometry x="-470" y="285" width="120" height="80" as="geometry" />
        </mxCell>
        <mxCell id="1zMVWTirToFaFZ9l6glJ-3" value="user4" style="ellipse;whiteSpace=wrap;html=1;" vertex="1" parent="WIyWlLk6GJQsqaUBKTNV-1">
          <mxGeometry x="-470" y="245" width="120" height="80" as="geometry" />
        </mxCell>
        <mxCell id="1zMVWTirToFaFZ9l6glJ-24" style="edgeStyle=orthogonalEdgeStyle;rounded=0;orthogonalLoop=1;jettySize=auto;html=1;entryX=0.5;entryY=0;entryDx=0;entryDy=0;" edge="1" parent="WIyWlLk6GJQsqaUBKTNV-1" source="1zMVWTirToFaFZ9l6glJ-4" target="tmFHrkGC2-1Cj11Atq-L-10">
          <mxGeometry relative="1" as="geometry" />
        </mxCell>
        <mxCell id="1zMVWTirToFaFZ9l6glJ-4" value="&lt;font style=&quot;font-size: 14px;&quot;&gt;acceptRequestDeamon&lt;/font&gt;" style="rounded=1;whiteSpace=wrap;html=1;" vertex="1" parent="WIyWlLk6GJQsqaUBKTNV-1">
          <mxGeometry x="40" y="310" width="230" height="60" as="geometry" />
        </mxCell>
        <mxCell id="1zMVWTirToFaFZ9l6glJ-9" style="edgeStyle=orthogonalEdgeStyle;rounded=0;orthogonalLoop=1;jettySize=auto;html=1;entryX=0.608;entryY=0.11;entryDx=0;entryDy=0;entryPerimeter=0;" edge="1" parent="WIyWlLk6GJQsqaUBKTNV-1" target="tmFHrkGC2-1Cj11Atq-L-6">
          <mxGeometry relative="1" as="geometry">
            <mxPoint x="80" y="590" as="sourcePoint" />
            <mxPoint x="-130.00000000000017" y="710" as="targetPoint" />
          </mxGeometry>
        </mxCell>
        <mxCell id="1zMVWTirToFaFZ9l6glJ-11" style="edgeStyle=orthogonalEdgeStyle;rounded=0;orthogonalLoop=1;jettySize=auto;html=1;exitX=0;exitY=1;exitDx=0;exitDy=0;entryX=0.625;entryY=0.2;entryDx=0;entryDy=0;entryPerimeter=0;" edge="1" parent="WIyWlLk6GJQsqaUBKTNV-1" source="tmFHrkGC2-1Cj11Atq-L-10" target="tmFHrkGC2-1Cj11Atq-L-7">
          <mxGeometry relative="1" as="geometry">
            <Array as="points">
              <mxPoint x="-5" y="625" />
            </Array>
          </mxGeometry>
        </mxCell>
        <mxCell id="1zMVWTirToFaFZ9l6glJ-12" style="edgeStyle=orthogonalEdgeStyle;rounded=0;orthogonalLoop=1;jettySize=auto;html=1;exitX=1;exitY=1;exitDx=0;exitDy=0;entryX=0.4;entryY=0.1;entryDx=0;entryDy=0;entryPerimeter=0;" edge="1" parent="WIyWlLk6GJQsqaUBKTNV-1" source="tmFHrkGC2-1Cj11Atq-L-10" target="tmFHrkGC2-1Cj11Atq-L-8">
          <mxGeometry relative="1" as="geometry">
            <Array as="points">
              <mxPoint x="298" y="625" />
            </Array>
          </mxGeometry>
        </mxCell>
        <mxCell id="1zMVWTirToFaFZ9l6glJ-26" style="edgeStyle=orthogonalEdgeStyle;rounded=0;orthogonalLoop=1;jettySize=auto;html=1;entryX=0;entryY=0.5;entryDx=0;entryDy=0;entryPerimeter=0;" edge="1" parent="WIyWlLk6GJQsqaUBKTNV-1" source="tmFHrkGC2-1Cj11Atq-L-2" target="tmFHrkGC2-1Cj11Atq-L-1">
          <mxGeometry relative="1" as="geometry" />
        </mxCell>
        <mxCell id="1zMVWTirToFaFZ9l6glJ-35" value="&lt;font style=&quot;font-size: 18px;&quot;&gt;1. TCP connection&lt;/font&gt;" style="text;html=1;align=center;verticalAlign=middle;whiteSpace=wrap;rounded=0;" vertex="1" parent="WIyWlLk6GJQsqaUBKTNV-1">
          <mxGeometry x="-210" y="295" width="180" height="45" as="geometry" />
        </mxCell>
        <mxCell id="1zMVWTirToFaFZ9l6glJ-41" value="&lt;font style=&quot;font-size: 18px;&quot;&gt;2-2. TCP Reject&lt;/font&gt;" style="text;html=1;align=center;verticalAlign=middle;whiteSpace=wrap;rounded=0;" vertex="1" parent="WIyWlLk6GJQsqaUBKTNV-1">
          <mxGeometry x="-200" y="205" width="160" height="40" as="geometry" />
        </mxCell>
        <mxCell id="1zMVWTirToFaFZ9l6glJ-43" style="edgeStyle=orthogonalEdgeStyle;rounded=0;orthogonalLoop=1;jettySize=auto;html=1;exitX=0;exitY=0.25;exitDx=0;exitDy=0;" edge="1" parent="WIyWlLk6GJQsqaUBKTNV-1" source="tmFHrkGC2-1Cj11Atq-L-2">
          <mxGeometry relative="1" as="geometry">
            <mxPoint x="-270" y="248" as="targetPoint" />
            <Array as="points">
              <mxPoint x="-267" y="248" />
            </Array>
          </mxGeometry>
        </mxCell>
        <mxCell id="1zMVWTirToFaFZ9l6glJ-45" value="&lt;font style=&quot;font-size: 18px;&quot;&gt;2-1. TCP accept.&lt;/font&gt;&lt;div&gt;&lt;font size=&quot;3&quot;&gt;Run Service Logic&lt;/font&gt;&lt;/div&gt;" style="text;html=1;align=center;verticalAlign=middle;whiteSpace=wrap;rounded=0;" vertex="1" parent="WIyWlLk6GJQsqaUBKTNV-1">
          <mxGeometry x="-10" y="420" width="161" height="50" as="geometry" />
        </mxCell>
        <mxCell id="1zMVWTirToFaFZ9l6glJ-46" value="&lt;font style=&quot;font-size: 18px;&quot;&gt;Data Transfer&lt;/font&gt;" style="text;html=1;align=center;verticalAlign=middle;whiteSpace=wrap;rounded=0;" vertex="1" parent="WIyWlLk6GJQsqaUBKTNV-1">
          <mxGeometry x="300" y="220" width="70" height="60" as="geometry" />
        </mxCell>
        <mxCell id="1zMVWTirToFaFZ9l6glJ-48" value="&lt;font style=&quot;font-size: 18px;&quot;&gt;Thread Pool&lt;/font&gt;" style="text;html=1;align=center;verticalAlign=middle;whiteSpace=wrap;rounded=0;" vertex="1" parent="WIyWlLk6GJQsqaUBKTNV-1">
          <mxGeometry x="65" y="760" width="170" height="30" as="geometry" />
        </mxCell>
        <mxCell id="1zMVWTirToFaFZ9l6glJ-49" value="&lt;font style=&quot;font-size: 18px;&quot;&gt;3.Request Controller Thread Create&lt;/font&gt;" style="text;html=1;align=center;verticalAlign=middle;whiteSpace=wrap;rounded=0;" vertex="1" parent="WIyWlLk6GJQsqaUBKTNV-1">
          <mxGeometry x="-170" y="600" width="180" height="30" as="geometry" />
        </mxCell>
        <mxCell id="1zMVWTirToFaFZ9l6glJ-52" style="rounded=0;orthogonalLoop=1;jettySize=auto;html=1;" edge="1" parent="WIyWlLk6GJQsqaUBKTNV-1">
          <mxGeometry relative="1" as="geometry">
            <mxPoint x="470" y="340" as="sourcePoint" />
            <mxPoint x="470" y="729.996923076923" as="targetPoint" />
          </mxGeometry>
        </mxCell>
        <mxCell id="1zMVWTirToFaFZ9l6glJ-53" value="&lt;font style=&quot;font-size: 18px;&quot;&gt;Data Transfer&lt;/font&gt;" style="text;html=1;align=center;verticalAlign=middle;whiteSpace=wrap;rounded=0;" vertex="1" parent="WIyWlLk6GJQsqaUBKTNV-1">
          <mxGeometry x="470" y="470" width="90" height="45" as="geometry" />
        </mxCell>
        <mxCell id="1zMVWTirToFaFZ9l6glJ-54" value="&lt;font style=&quot;font-size: 24px;&quot;&gt;&lt;b&gt;WinForm Users&lt;/b&gt;&lt;/font&gt;" style="text;html=1;align=center;verticalAlign=middle;whiteSpace=wrap;rounded=0;" vertex="1" parent="WIyWlLk6GJQsqaUBKTNV-1">
          <mxGeometry x="-499.5" y="200" width="189.5" height="40" as="geometry" />
        </mxCell>
        <mxCell id="1zMVWTirToFaFZ9l6glJ-59" value="&lt;font style=&quot;font-size: 18px;&quot;&gt;4. request &amp;amp; response actions&amp;nbsp;&lt;span style=&quot;background-color: initial;&quot;&gt;in&lt;/span&gt;&lt;/font&gt;&lt;div&gt;&lt;font size=&quot;3&quot;&gt;WinForm APP - Reqeust Controller Thread&lt;/font&gt;&lt;/div&gt;" style="text;html=1;align=center;verticalAlign=middle;whiteSpace=wrap;rounded=0;" vertex="1" parent="WIyWlLk6GJQsqaUBKTNV-1">
          <mxGeometry x="-730" y="610" width="320" height="80" as="geometry" />
        </mxCell>
        <mxCell id="1zMVWTirToFaFZ9l6glJ-61" value="&lt;font style=&quot;font-size: 18px;&quot;&gt;3.Request Controller Thread Create&lt;/font&gt;" style="text;html=1;align=center;verticalAlign=middle;whiteSpace=wrap;rounded=0;" vertex="1" parent="WIyWlLk6GJQsqaUBKTNV-1">
          <mxGeometry x="60" y="670" width="180" height="30" as="geometry" />
        </mxCell>
        <mxCell id="1zMVWTirToFaFZ9l6glJ-62" value="&lt;font style=&quot;font-size: 18px;&quot;&gt;3.Request Controller Thread Create&lt;/font&gt;" style="text;html=1;align=center;verticalAlign=middle;whiteSpace=wrap;rounded=0;" vertex="1" parent="WIyWlLk6GJQsqaUBKTNV-1">
          <mxGeometry x="280" y="600" width="180" height="30" as="geometry" />
        </mxCell>
      </root>
    </mxGraphModel>
  </diagram>
</mxfile>
